<mxfile host="app.diagrams.net" modified="2022-02-27T18:27:44.353Z" agent="5.0 (Windows NT 10.0; Win64; x64) AppleWebKit/537.36 (KHTML, like Gecko) Chrome/98.0.4758.102 Safari/537.36 Edg/98.0.1108.62" etag="NBwKeo1pOJplweu4Jfj-" version="16.5.5" type="github">
  <diagram id="C5RBs43oDa-KdzZeNtuy" name="Page-1">
    <mxGraphModel dx="852" dy="347" grid="1" gridSize="10" guides="1" tooltips="1" connect="1" arrows="1" fold="1" page="1" pageScale="1" pageWidth="827" pageHeight="1169" math="0" shadow="0">
      <root>
        <mxCell id="WIyWlLk6GJQsqaUBKTNV-0" />
        <mxCell id="WIyWlLk6GJQsqaUBKTNV-1" parent="WIyWlLk6GJQsqaUBKTNV-0" />
        <mxCell id="ylU-c3WYuJFmAkGkU4CZ-3" style="edgeStyle=orthogonalEdgeStyle;rounded=0;orthogonalLoop=1;jettySize=auto;html=1;entryX=0;entryY=0.5;entryDx=0;entryDy=0;" edge="1" parent="WIyWlLk6GJQsqaUBKTNV-1" source="ylU-c3WYuJFmAkGkU4CZ-0" target="ylU-c3WYuJFmAkGkU4CZ-1">
          <mxGeometry relative="1" as="geometry" />
        </mxCell>
        <mxCell id="ylU-c3WYuJFmAkGkU4CZ-0" value="TABLA" style="ellipse;whiteSpace=wrap;html=1;aspect=fixed;" vertex="1" parent="WIyWlLk6GJQsqaUBKTNV-1">
          <mxGeometry x="30" y="170" width="90" height="90" as="geometry" />
        </mxCell>
        <mxCell id="ylU-c3WYuJFmAkGkU4CZ-5" style="edgeStyle=orthogonalEdgeStyle;rounded=0;orthogonalLoop=1;jettySize=auto;html=1;entryX=0;entryY=0.5;entryDx=0;entryDy=0;" edge="1" parent="WIyWlLk6GJQsqaUBKTNV-1" source="ylU-c3WYuJFmAkGkU4CZ-1" target="ylU-c3WYuJFmAkGkU4CZ-4">
          <mxGeometry relative="1" as="geometry" />
        </mxCell>
        <mxCell id="ylU-c3WYuJFmAkGkU4CZ-1" value="&lt;font&gt;Verificar:&lt;br&gt;&lt;div style=&quot;background-color: rgb(255 , 255 , 255) ; font-family: &amp;#34;consolas&amp;#34; , &amp;#34;courier new&amp;#34; , monospace ; font-size: 10px ; line-height: 14px&quot;&gt;&amp;nbsp;tabla[indice_min(tabla)]&amp;lt;= t &amp;lt;= tabla[indice_max(tabla)]&lt;/div&gt;&lt;/font&gt;" style="rounded=0;whiteSpace=wrap;html=1;" vertex="1" parent="WIyWlLk6GJQsqaUBKTNV-1">
          <mxGeometry x="210" y="170" width="150" height="90" as="geometry" />
        </mxCell>
        <mxCell id="ylU-c3WYuJFmAkGkU4CZ-2" value="dicotomia" style="text;html=1;align=center;verticalAlign=middle;resizable=0;points=[];autosize=1;strokeColor=none;fillColor=none;" vertex="1" parent="WIyWlLk6GJQsqaUBKTNV-1">
          <mxGeometry x="250" y="130" width="70" height="20" as="geometry" />
        </mxCell>
        <mxCell id="ylU-c3WYuJFmAkGkU4CZ-9" style="edgeStyle=orthogonalEdgeStyle;rounded=0;orthogonalLoop=1;jettySize=auto;html=1;" edge="1" parent="WIyWlLk6GJQsqaUBKTNV-1" source="ylU-c3WYuJFmAkGkU4CZ-4" target="ylU-c3WYuJFmAkGkU4CZ-8">
          <mxGeometry relative="1" as="geometry" />
        </mxCell>
        <mxCell id="ylU-c3WYuJFmAkGkU4CZ-4" value="Buscar:&lt;br&gt;&lt;font&gt;Índice &quot;t&quot; en tabla&lt;/font&gt;" style="whiteSpace=wrap;html=1;aspect=fixed;" vertex="1" parent="WIyWlLk6GJQsqaUBKTNV-1">
          <mxGeometry x="490" y="165" width="100" height="100" as="geometry" />
        </mxCell>
        <mxCell id="ylU-c3WYuJFmAkGkU4CZ-6" value="&lt;div style=&quot;color: rgb(0, 0, 0); background-color: rgb(255, 255, 255); font-family: consolas, &amp;quot;courier new&amp;quot;, monospace; font-weight: normal; font-size: 10px; line-height: 14px;&quot;&gt;&lt;div&gt;&lt;span style=&quot;color: #008000&quot;&gt;Resultado ≠ AUSENTE&lt;/span&gt;&lt;/div&gt;&lt;/div&gt;" style="text;whiteSpace=wrap;html=1;" vertex="1" parent="WIyWlLk6GJQsqaUBKTNV-1">
          <mxGeometry x="370" y="180" width="130" height="30" as="geometry" />
        </mxCell>
        <mxCell id="ylU-c3WYuJFmAkGkU4CZ-7" value="dicotomia_recursiva" style="text;html=1;align=center;verticalAlign=middle;resizable=0;points=[];autosize=1;strokeColor=none;fillColor=none;" vertex="1" parent="WIyWlLk6GJQsqaUBKTNV-1">
          <mxGeometry x="480" y="130" width="120" height="20" as="geometry" />
        </mxCell>
        <mxCell id="ylU-c3WYuJFmAkGkU4CZ-8" value="Número de celda que contiene &quot;t&quot; o AUSENTE" style="ellipse;whiteSpace=wrap;html=1;aspect=fixed;" vertex="1" parent="WIyWlLk6GJQsqaUBKTNV-1">
          <mxGeometry x="700" y="175" width="80" height="80" as="geometry" />
        </mxCell>
      </root>
    </mxGraphModel>
  </diagram>
</mxfile>
